# xmcd CD database file
#
# Track frame offsets:
#	150
#	15985
#	28092
#	39167
#	49140
#	56377
#	67710
#	76290
#	86462
#	101025
#	111102
#	121977
#	132132
#	146995
#	161790
#
# Disc length: 2315 seconds
#
# Revision: 33
# Processed by: cddbd v1.5.2PL0 Copyright (c) Steve Scherf et al.
# Submitted via: CDex 1.70beta2
#
DISCID=bb09090f
DTITLE=Johnny Cash, 1932-2003 - My Mother's Hymn Book
DYEAR=2004
DGENRE=Gospel
TTITLE0=Where We'll Never Grow Old - James C. Moore
TTITLE1=I Shall Not Be Moved
TTITLE2=I Am A Pilgrim - Merle Travis
TTITLE3=Do Lord
TTITLE4=When The Roll Is Called Up Yonder - James Black
TTITLE5=If We Never Meet Again This Side Of Heaven - Albert E. Brumley
TTITLE6=I'll Fly Away - Albert E. Brumley
TTITLE7=Where The Soul Of Man Never Dies - William Lee Golden, Wayne Raney
TTITLE8=Let The Lower Lights Be Burning
TTITLE9=When He Reached Down - Marion Easterling, Thomas Wright
TTITLE10=In The Sweet By And By - Sanford Fillmore Bennett, Joseph Philbrick Webster
TTITLE11=I'm Bound For The Promised Land
TTITLE12=In The Garden - C. Austin Miles
TTITLE13=Softly And Tenderly - Will L. Thompson
TTITLE14=Just As I Am - William B. Bradbury, Charlotte Elliot
EXTD=YEAR: 2004
EXTT0=
EXTT1=
EXTT2=
EXTT3=
EXTT4=
EXTT5=
EXTT6=
EXTT7=
EXTT8=
EXTT9=
EXTT10=
EXTT11=
EXTT12=
EXTT13=
EXTT14=
PLAYORDER=
